<mxfile host="app.diagrams.net" agent="Mozilla/5.0 (Windows NT 10.0; Win64; x64) AppleWebKit/537.36 (KHTML, like Gecko) Chrome/129.0.0.0 Safari/537.36 Edg/129.0.0.0" version="24.7.16">
  <diagram name="Page-1" id="-lrZrlXhT4Za2_gv-0I5">
    <mxGraphModel>
      <root>
        <mxCell id="0" />
        <mxCell id="1" parent="0" />
        <mxCell id="2" value="Terms_Preparation" style="whiteSpace=wrap;strokeWidth=2;verticalAlign=top;" vertex="1" parent="1">
          <mxGeometry x="8" y="8" width="1473" height="615" as="geometry" />
        </mxCell>
        <mxCell id="3" value="Java Concepts" style="rounded=1;arcSize=40;strokeWidth=2" vertex="1" parent="2">
          <mxGeometry x="46" y="283" width="133" height="49" as="geometry" />
        </mxCell>
        <mxCell id="4" value="&lt;b&gt;Algorithm&#xa;Analysis&lt;/b&gt;" style="rhombus;strokeWidth=2;whiteSpace=wrap;" vertex="1" parent="2">
          <mxGeometry x="278" y="104" width="166" height="166" as="geometry" />
        </mxCell>
        <mxCell id="5" value="Example: Sorting Algorithms" style="whiteSpace=wrap;strokeWidth=2;" vertex="1" parent="2">
          <mxGeometry x="752" y="68" width="182" height="67" as="geometry" />
        </mxCell>
        <mxCell id="6" value="&lt;b&gt;Data&#xa;Structures&lt;/b&gt;" style="rhombus;strokeWidth=2;whiteSpace=wrap;" vertex="1" parent="2">
          <mxGeometry x="753" y="184" width="179" height="179" as="geometry" />
        </mxCell>
        <mxCell id="7" value="Example: Tree Traversal" style="whiteSpace=wrap;strokeWidth=2;" vertex="1" parent="2">
          <mxGeometry x="1212" y="249" width="232" height="49" as="geometry" />
        </mxCell>
        <mxCell id="8" value="&lt;b&gt;Object-Oriented&#xa;Programming&lt;/b&gt;" style="rhombus;strokeWidth=2;whiteSpace=wrap;" vertex="1" parent="2">
          <mxGeometry x="253" y="373" width="215" height="215" as="geometry" />
        </mxCell>
        <mxCell id="9" value="Example: Class and Interface" style="whiteSpace=wrap;strokeWidth=2;" vertex="1" parent="2">
          <mxGeometry x="743" y="447" width="198" height="67" as="geometry" />
        </mxCell>
        <mxCell id="10" value="" style="curved=1;startArrow=none;endArrow=block;exitX=0.66;exitY=0.01;entryX=0;entryY=0.5;" edge="1" parent="2" source="3" target="4">
          <mxGeometry relative="1" as="geometry">
            <Array as="points">
              <mxPoint x="216" y="188" />
            </Array>
          </mxGeometry>
        </mxCell>
        <mxCell id="11" value="Complexity: O(1), O(log n), O(n), O(n log n), O(n^2)" style="curved=1;startArrow=none;endArrow=block;exitX=1;exitY=0.33;entryX=0;entryY=0.5;" edge="1" parent="2" source="4" target="5">
          <mxGeometry relative="1" as="geometry">
            <Array as="points">
              <mxPoint x="606" y="101" />
            </Array>
          </mxGeometry>
        </mxCell>
        <mxCell id="12" value="" style="curved=1;startArrow=none;endArrow=block;exitX=1;exitY=0.68;entryX=0;entryY=0.5;" edge="1" parent="2" source="4" target="6">
          <mxGeometry relative="1" as="geometry">
            <Array as="points">
              <mxPoint x="606" y="274" />
            </Array>
          </mxGeometry>
        </mxCell>
        <mxCell id="13" value="Types: Array, Linked List, Stack, Queue, Tree, Graph" style="curved=1;startArrow=none;endArrow=block;exitX=1;exitY=0.5;entryX=0;entryY=0.51;" edge="1" parent="2" source="6" target="7">
          <mxGeometry relative="1" as="geometry">
            <Array as="points" />
          </mxGeometry>
        </mxCell>
        <mxCell id="14" value="" style="curved=1;startArrow=none;endArrow=block;exitX=0.61;exitY=1.01;entryX=0;entryY=0.5;" edge="1" parent="2" source="3" target="8">
          <mxGeometry relative="1" as="geometry">
            <Array as="points">
              <mxPoint x="216" y="481" />
            </Array>
          </mxGeometry>
        </mxCell>
        <mxCell id="15" value="Principles: Inheritance, Encapsulation, Polymorphism, Abstraction" style="curved=1;startArrow=none;endArrow=block;exitX=1;exitY=0.5;entryX=0;entryY=0.5;" edge="1" parent="2" source="8" target="9">
          <mxGeometry relative="1" as="geometry">
            <Array as="points" />
          </mxGeometry>
        </mxCell>
      </root>
    </mxGraphModel>
  </diagram>
</mxfile>
